<svg width="24" height="24" viewBox="0 0 24 24" fill="none" xmlns="http://www.w3.org/2000/svg">
<path d="M10.5732 11.0909H12.3914V4.72727C12.3914 4.4697 12.3043 4.25379 12.13 4.07955C11.9558 3.9053 11.7399 3.81818 11.4823 3.81818C11.2247 3.81818 11.0088 3.9053 10.8346 4.07955C10.6603 4.25379 10.5732 4.4697 10.5732 4.72727V11.0909ZM5.11867 14.7273H17.8459V12.9091H5.11867V14.7273ZM3.80049 20.1818H6.02776V18.3636C6.02776 18.1061 6.11488 17.8902 6.28912 17.7159C6.46337 17.5417 6.67928 17.4545 6.93685 17.4545C7.19443 17.4545 7.41034 17.5417 7.58458 17.7159C7.75882 17.8902 7.84594 18.1061 7.84594 18.3636V20.1818H10.5732V18.3636C10.5732 18.1061 10.6603 17.8902 10.8346 17.7159C11.0088 17.5417 11.2247 17.4545 11.4823 17.4545C11.7399 17.4545 11.9558 17.5417 12.13 17.7159C12.3043 17.8902 12.3914 18.1061 12.3914 18.3636V20.1818H15.1187V18.3636C15.1187 18.1061 15.2058 17.8902 15.38 17.7159C15.5543 17.5417 15.7702 17.4545 16.0278 17.4545C16.2853 17.4545 16.5012 17.5417 16.6755 17.7159C16.8497 17.8902 16.9369 18.1061 16.9369 18.3636V20.1818H19.1641L18.255 16.5455H4.70958L3.80049 20.1818ZM19.1641 22H3.80049C3.20958 22 2.73231 21.7652 2.36867 21.2955C2.00503 20.8258 1.89897 20.303 2.05049 19.7273L3.30049 14.7273V12.9091C3.30049 12.4091 3.47852 11.9811 3.83458 11.625C4.19064 11.2689 4.61867 11.0909 5.11867 11.0909H8.75503V4.72727C8.75503 3.9697 9.02018 3.32576 9.55049 2.79545C10.0808 2.26515 10.7247 2 11.4823 2C12.2399 2 12.8838 2.26515 13.4141 2.79545C13.9444 3.32576 14.2096 3.9697 14.2096 4.72727V11.0909H17.8459C18.3459 11.0909 18.774 11.2689 19.13 11.625C19.4861 11.9811 19.6641 12.4091 19.6641 12.9091V14.7273L20.9141 19.7273C21.1111 20.303 21.024 20.8258 20.6528 21.2955C20.2815 21.7652 19.7853 22 19.1641 22Z" fill="#8E93A8"/>
</svg>
