<svg width="115" height="32" viewBox="0 0 115 32" fill="none" xmlns="http://www.w3.org/2000/svg">
<path d="M19.1701 2.95435L14 0L0 8V24L5.2 26.9714V11.0177L5.59292 10.7931L19.1701 2.95435Z" fill="#6FB295"/>
<path d="M26.0663 6.89502L13.98 13.873L13.98 19.7977L22.8 14.7577V20.9823L14 26.0109V32L28 24V8L26.0663 6.89502Z" fill="#6FB295"/>
<path d="M41.706 9.48C41.166 9.48 40.746 9.66 40.446 10.02C40.158 10.368 40.014 10.824 40.014 11.388V11.856H42.462V13.422H40.014V21H37.854V13.422H36.486V11.856H37.854V11.226C37.854 10.17 38.172 9.33 38.808 8.706C39.456 8.082 40.308 7.77 41.364 7.77C42.444 7.77 43.332 8.034 44.028 8.562L43.29 9.966C42.834 9.642 42.306 9.48 41.706 9.48ZM47.4728 11.64C48.7688 11.64 49.8128 12.012 50.6048 12.756C51.4088 13.5 51.8108 14.514 51.8108 15.798V21H49.6148V19.704C49.2788 20.196 48.8168 20.574 48.2288 20.838C47.6528 21.09 47.0468 21.216 46.4108 21.216C45.4868 21.216 44.6888 20.964 44.0168 20.46C43.3448 19.956 43.0088 19.254 43.0088 18.354C43.0088 17.418 43.3748 16.704 44.1068 16.212C44.8508 15.72 45.7148 15.474 46.6988 15.474C47.8508 15.474 48.8288 15.786 49.6328 16.41V15.69C49.6328 14.97 49.4048 14.406 48.9488 13.998C48.4928 13.578 47.9048 13.368 47.1848 13.368C46.0808 13.368 45.1508 13.668 44.3948 14.268L43.6567 12.828C44.1368 12.444 44.7248 12.15 45.4208 11.946C46.1288 11.742 46.8128 11.64 47.4728 11.64ZM47.0588 19.632C48.1268 19.632 48.9788 19.224 49.6148 18.408L49.6328 17.472C48.9248 17.016 48.1388 16.788 47.2748 16.788C46.7468 16.788 46.2728 16.908 45.8528 17.148C45.4328 17.388 45.2228 17.748 45.2228 18.228C45.2228 18.684 45.4088 19.032 45.7808 19.272C46.1528 19.512 46.5788 19.632 47.0588 19.632ZM57.3557 11.64C58.5557 11.64 59.6717 11.904 60.7037 12.432L60.0737 13.908C59.1377 13.488 58.2737 13.278 57.4817 13.278C57.0737 13.278 56.7137 13.362 56.4017 13.53C56.0897 13.686 55.9337 13.95 55.9337 14.322C55.9337 14.778 56.3117 15.114 57.0677 15.33L58.3817 15.744C60.0257 16.272 60.8477 17.178 60.8477 18.462C60.8477 19.374 60.4817 20.064 59.7497 20.532C59.0297 20.988 58.1837 21.216 57.2117 21.216C55.6757 21.216 54.3797 20.892 53.3237 20.244L54.0617 18.732C55.0097 19.272 56.0237 19.542 57.1037 19.542C57.4997 19.542 57.8717 19.458 58.2197 19.29C58.5797 19.122 58.7597 18.864 58.7597 18.516C58.7597 18.012 58.3397 17.646 57.4997 17.418L56.1857 17.004C54.6257 16.488 53.8457 15.606 53.8457 14.358C53.8457 13.458 54.1937 12.78 54.8897 12.324C55.5857 11.868 56.4077 11.64 57.3557 11.64ZM68.0947 19.092L68.6167 20.568C67.9927 21 67.2067 21.216 66.2587 21.216C65.3947 21.216 64.6747 20.958 64.0987 20.442C63.5227 19.926 63.2347 19.242 63.2347 18.39V13.512H61.8127V11.856H63.3607L63.7927 9.282H65.3947V11.856H68.1487V13.512H65.3947V17.904C65.3947 18.36 65.5087 18.726 65.7367 19.002C65.9647 19.278 66.3067 19.416 66.7627 19.416C67.2427 19.416 67.6867 19.308 68.0947 19.092ZM75.4089 11.64C76.8009 11.64 77.8929 12.09 78.6849 12.99C79.4769 13.878 79.8729 15.024 79.8729 16.428C79.8729 17.82 79.4709 18.966 78.6669 19.866C77.8749 20.766 76.7889 21.216 75.4089 21.216C74.7489 21.216 74.1189 21.054 73.5189 20.73C72.9309 20.406 72.4749 19.962 72.1509 19.398V25.032H69.9729V11.856H72.1509V13.458C72.4749 12.894 72.9309 12.45 73.5189 12.126C74.1189 11.802 74.7489 11.64 75.4089 11.64ZM74.9769 19.434C75.8289 19.434 76.4889 19.152 76.9569 18.588C77.4369 18.012 77.6769 17.292 77.6769 16.428C77.6769 15.564 77.4369 14.85 76.9569 14.286C76.4889 13.71 75.8289 13.422 74.9769 13.422C74.1129 13.422 73.4229 13.704 72.9069 14.268C72.3909 14.832 72.1329 15.552 72.1329 16.428C72.1329 17.304 72.3909 18.024 72.9069 18.588C73.4229 19.152 74.1129 19.434 74.9769 19.434ZM86.591 11.64C86.711 11.64 86.933 11.658 87.257 11.694V13.98C86.993 13.884 86.675 13.836 86.303 13.836C85.883 13.836 85.511 13.956 85.187 14.196C84.875 14.424 84.635 14.73 84.467 15.114C84.299 15.486 84.173 15.87 84.089 16.266C84.017 16.65 83.981 17.034 83.981 17.418V21H81.803V11.856H83.927V14.358C84.047 13.602 84.341 12.96 84.809 12.432C85.277 11.904 85.871 11.64 86.591 11.64ZM97.2105 16.032C97.2105 16.392 97.1925 16.656 97.1565 16.824H90.1185C90.2145 17.676 90.5265 18.33 91.0545 18.786C91.5825 19.23 92.2785 19.452 93.1425 19.452C94.1505 19.452 94.9545 19.254 95.5545 18.858L96.4005 20.244C95.4285 20.892 94.2825 21.216 92.9625 21.216C91.4985 21.216 90.2985 20.784 89.3625 19.92C88.4385 19.056 87.9765 17.898 87.9765 16.446C87.9765 15.018 88.4145 13.86 89.2905 12.972C90.1785 12.084 91.3305 11.64 92.7465 11.64C94.0905 11.64 95.1705 12.042 95.9865 12.846C96.8025 13.638 97.2105 14.7 97.2105 16.032ZM92.6925 13.332C92.0205 13.332 91.4625 13.53 91.0185 13.926C90.5865 14.31 90.3105 14.838 90.1905 15.51H95.0505C95.0025 14.826 94.7685 14.292 94.3485 13.908C93.9285 13.524 93.3765 13.332 92.6925 13.332ZM102.215 11.64C103.415 11.64 104.531 11.904 105.563 12.432L104.933 13.908C103.997 13.488 103.133 13.278 102.341 13.278C101.933 13.278 101.573 13.362 101.261 13.53C100.949 13.686 100.793 13.95 100.793 14.322C100.793 14.778 101.171 15.114 101.927 15.33L103.241 15.744C104.885 16.272 105.707 17.178 105.707 18.462C105.707 19.374 105.341 20.064 104.609 20.532C103.889 20.988 103.043 21.216 102.071 21.216C100.535 21.216 99.2391 20.892 98.1831 20.244L98.9211 18.732C99.8691 19.272 100.883 19.542 101.963 19.542C102.359 19.542 102.731 19.458 103.079 19.29C103.439 19.122 103.619 18.864 103.619 18.516C103.619 18.012 103.199 17.646 102.359 17.418L101.045 17.004C99.4851 16.488 98.7051 15.606 98.7051 14.358C98.7051 13.458 99.0531 12.78 99.7491 12.324C100.445 11.868 101.267 11.64 102.215 11.64ZM110.758 11.64C111.958 11.64 113.074 11.904 114.106 12.432L113.476 13.908C112.54 13.488 111.676 13.278 110.884 13.278C110.476 13.278 110.116 13.362 109.804 13.53C109.492 13.686 109.336 13.95 109.336 14.322C109.336 14.778 109.714 15.114 110.47 15.33L111.784 15.744C113.428 16.272 114.25 17.178 114.25 18.462C114.25 19.374 113.884 20.064 113.152 20.532C112.432 20.988 111.586 21.216 110.614 21.216C109.078 21.216 107.782 20.892 106.726 20.244L107.464 18.732C108.412 19.272 109.426 19.542 110.506 19.542C110.902 19.542 111.274 19.458 111.622 19.29C111.982 19.122 112.162 18.864 112.162 18.516C112.162 18.012 111.742 17.646 110.902 17.418L109.588 17.004C108.028 16.488 107.248 15.606 107.248 14.358C107.248 13.458 107.596 12.78 108.292 12.324C108.988 11.868 109.81 11.64 110.758 11.64Z" fill="#171F33"/>
</svg>
