<svg width="137" height="40" viewBox="0 0 137 40" fill="none" xmlns="http://www.w3.org/2000/svg">
<path d="M23.9626 3.69294L17.5 0L0 10V30L6.5 33.7143V13.7721L6.99115 13.4914L23.9626 3.69294Z" fill="#6FB295"/>
<path d="M32.5829 8.61878L17.475 17.3413L17.475 24.7471L28.5 18.4471V26.2279L17.5 32.5136V40L35 30V10L32.5829 8.61878Z" fill="#6FB295"/>
<path d="M53.02 30C53.7933 30 54.4 30.25 54.84 30.75C55.28 31.2433 55.5 31.88 55.5 32.66C55.5 33.4333 55.2767 34.07 54.83 34.57C54.39 35.07 53.7867 35.32 53.02 35.32C52.6533 35.32 52.3033 35.23 51.97 35.05C51.6433 34.87 51.39 34.6233 51.21 34.31V37.44H50V30.12H51.21V31.01C51.39 30.6967 51.6433 30.45 51.97 30.27C52.3033 30.09 52.6533 30 53.02 30ZM52.78 34.33C53.2533 34.33 53.62 34.1733 53.88 33.86C54.1467 33.54 54.28 33.14 54.28 32.66C54.28 32.18 54.1467 31.7833 53.88 31.47C53.62 31.15 53.2533 30.99 52.78 30.99C52.3 30.99 51.9167 31.1467 51.63 31.46C51.3433 31.7733 51.2 32.1733 51.2 32.66C51.2 33.1467 51.3433 33.5467 51.63 33.86C51.9167 34.1733 52.3 34.33 52.78 34.33Z" fill="#8E93A8"/>
<path d="M59.2323 30C59.2989 30 59.4223 30.01 59.6023 30.03V31.3C59.4556 31.2467 59.2789 31.22 59.0723 31.22C58.8389 31.22 58.6323 31.2867 58.4523 31.42C58.2789 31.5467 58.1456 31.7167 58.0523 31.93C57.9589 32.1367 57.8889 32.35 57.8423 32.57C57.8023 32.7833 57.7823 32.9967 57.7823 33.21V35.2H56.5723V30.12H57.7523V31.51C57.8189 31.09 57.9823 30.7333 58.2423 30.44C58.5023 30.1467 58.8323 30 59.2323 30Z" fill="#8E93A8"/>
<path d="M65.132 32.44C65.132 32.64 65.122 32.7867 65.102 32.88H61.192C61.2454 33.3533 61.4187 33.7167 61.712 33.97C62.0054 34.2167 62.392 34.34 62.872 34.34C63.432 34.34 63.8787 34.23 64.212 34.01L64.682 34.78C64.142 35.14 63.5054 35.32 62.772 35.32C61.9587 35.32 61.292 35.08 60.772 34.6C60.2587 34.12 60.002 33.4767 60.002 32.67C60.002 31.8767 60.2454 31.2333 60.732 30.74C61.2254 30.2467 61.8654 30 62.652 30C63.3987 30 63.9987 30.2233 64.452 30.67C64.9054 31.11 65.132 31.7 65.132 32.44ZM62.622 30.94C62.2487 30.94 61.9387 31.05 61.692 31.27C61.452 31.4833 61.2987 31.7767 61.232 32.15H63.932C63.9054 31.77 63.7754 31.4733 63.542 31.26C63.3087 31.0467 63.002 30.94 62.622 30.94Z" fill="#8E93A8"/>
<path d="M70.1235 30.85L67.3735 34.25H70.2235V35.2H65.7135V34.48L68.4535 31.07H65.8635V30.12H70.1235V30.85Z" fill="#8E93A8"/>
<path d="M74.1007 30C74.714 30 75.184 30.2233 75.5107 30.67C75.844 31.11 76.0107 31.6467 76.0107 32.28V35.2H74.7907V32.33C74.7907 31.9567 74.7007 31.6433 74.5207 31.39C74.3407 31.13 74.0707 31 73.7107 31C73.2974 31 72.9807 31.16 72.7607 31.48C72.5407 31.7933 72.4307 32.1667 72.4307 32.6V35.2H71.2207V30.12H72.4307V31.02C72.564 30.7 72.784 30.45 73.0907 30.27C73.404 30.09 73.7407 30 74.1007 30Z" fill="#8E93A8"/>
<path d="M79.414 30C80.134 30 80.714 30.2067 81.154 30.62C81.6007 31.0333 81.824 31.5967 81.824 32.31V35.2H80.604V34.48C80.4173 34.7533 80.1607 34.9633 79.834 35.11C79.514 35.25 79.1773 35.32 78.824 35.32C78.3106 35.32 77.8673 35.18 77.494 34.9C77.1207 34.62 76.934 34.23 76.934 33.73C76.934 33.21 77.1373 32.8133 77.544 32.54C77.9573 32.2667 78.4373 32.13 78.984 32.13C79.624 32.13 80.1673 32.3033 80.614 32.65V32.25C80.614 31.85 80.4873 31.5367 80.234 31.31C79.9806 31.0767 79.654 30.96 79.254 30.96C78.6407 30.96 78.124 31.1267 77.704 31.46L77.294 30.66C77.5606 30.4467 77.8873 30.2833 78.274 30.17C78.6673 30.0567 79.0473 30 79.414 30ZM79.184 34.44C79.7773 34.44 80.2507 34.2133 80.604 33.76L80.614 33.24C80.2206 32.9867 79.784 32.86 79.304 32.86C79.0107 32.86 78.7473 32.9267 78.514 33.06C78.2806 33.1933 78.164 33.3933 78.164 33.66C78.164 33.9133 78.2673 34.1067 78.474 34.24C78.6807 34.3733 78.9173 34.44 79.184 34.44Z" fill="#8E93A8"/>
<path d="M55.6398 8.9C55.0398 8.9 54.5732 9.1 54.2398 9.5C53.9198 9.88667 53.7598 10.3933 53.7598 11.02V11.54H56.4798V13.28H53.7598V21.7H51.3598V13.28H49.8398V11.54H51.3598V10.84C51.3598 9.66667 51.7132 8.73333 52.4198 8.04C53.1398 7.34667 54.0865 7 55.2598 7C56.4598 7 57.4465 7.29333 58.2198 7.88L57.3998 9.44C56.8932 9.08 56.3065 8.9 55.6398 8.9Z" fill="white"/>
<path d="M62.0473 11.3C63.4873 11.3 64.6473 11.7133 65.5273 12.54C66.4207 13.3667 66.8673 14.4933 66.8673 15.92V21.7H64.4273V20.26C64.054 20.8067 63.5407 21.2267 62.8873 21.52C62.2473 21.8 61.574 21.94 60.8673 21.94C59.8407 21.94 58.954 21.66 58.2073 21.1C57.4607 20.54 57.0873 19.76 57.0873 18.76C57.0873 17.72 57.494 16.9267 58.3073 16.38C59.134 15.8333 60.094 15.56 61.1873 15.56C62.4673 15.56 63.554 15.9067 64.4473 16.6V15.8C64.4473 15 64.194 14.3733 63.6873 13.92C63.1807 13.4533 62.5273 13.22 61.7273 13.22C60.5007 13.22 59.4673 13.5533 58.6273 14.22L57.8073 12.62C58.3407 12.1933 58.994 11.8667 59.7673 11.64C60.554 11.4133 61.314 11.3 62.0473 11.3ZM61.5873 20.18C62.774 20.18 63.7207 19.7267 64.4273 18.82L64.4473 17.78C63.6607 17.2733 62.7873 17.02 61.8273 17.02C61.2407 17.02 60.714 17.1533 60.2473 17.42C59.7807 17.6867 59.5473 18.0867 59.5473 18.62C59.5473 19.1267 59.754 19.5133 60.1673 19.78C60.5807 20.0467 61.054 20.18 61.5873 20.18Z" fill="white"/>
<path d="M73.0284 11.3C74.3618 11.3 75.6018 11.5933 76.7484 12.18L76.0484 13.82C75.0084 13.3533 74.0484 13.12 73.1684 13.12C72.7151 13.12 72.3151 13.2133 71.9684 13.4C71.6218 13.5733 71.4484 13.8667 71.4484 14.28C71.4484 14.7867 71.8684 15.16 72.7084 15.4L74.1684 15.86C75.9951 16.4467 76.9084 17.4533 76.9084 18.88C76.9084 19.8933 76.5018 20.66 75.6884 21.18C74.8884 21.6867 73.9484 21.94 72.8684 21.94C71.1618 21.94 69.7218 21.58 68.5484 20.86L69.3684 19.18C70.4218 19.78 71.5484 20.08 72.7484 20.08C73.1884 20.08 73.6018 19.9867 73.9884 19.8C74.3884 19.6133 74.5884 19.3267 74.5884 18.94C74.5884 18.38 74.1218 17.9733 73.1884 17.72L71.7284 17.26C69.9951 16.6867 69.1284 15.7067 69.1284 14.32C69.1284 13.32 69.5151 12.5667 70.2884 12.06C71.0618 11.5533 71.9751 11.3 73.0284 11.3Z" fill="white"/>
<path d="M84.9606 19.58L85.5406 21.22C84.8473 21.7 83.974 21.94 82.9206 21.94C81.9606 21.94 81.1606 21.6533 80.5206 21.08C79.8806 20.5067 79.5606 19.7467 79.5606 18.8V13.38H77.9806V11.54H79.7006L80.1806 8.68H81.9606V11.54H85.0206V13.38H81.9606V18.26C81.9606 18.7667 82.0873 19.1733 82.3406 19.48C82.594 19.7867 82.974 19.94 83.4806 19.94C84.014 19.94 84.5073 19.82 84.9606 19.58Z" fill="white"/>
<path d="M93.0875 11.3C94.6342 11.3 95.8475 11.8 96.7275 12.8C97.6075 13.7867 98.0475 15.06 98.0475 16.62C98.0475 18.1667 97.6008 19.44 96.7075 20.44C95.8275 21.44 94.6208 21.94 93.0875 21.94C92.3542 21.94 91.6542 21.76 90.9875 21.4C90.3342 21.04 89.8275 20.5467 89.4675 19.92V26.18H87.0475V11.54H89.4675V13.32C89.8275 12.6933 90.3342 12.2 90.9875 11.84C91.6542 11.48 92.3542 11.3 93.0875 11.3ZM92.6075 19.96C93.5542 19.96 94.2875 19.6467 94.8075 19.02C95.3408 18.38 95.6075 17.58 95.6075 16.62C95.6075 15.66 95.3408 14.8667 94.8075 14.24C94.2875 13.6 93.5542 13.28 92.6075 13.28C91.6475 13.28 90.8808 13.5933 90.3075 14.22C89.7342 14.8467 89.4475 15.6467 89.4475 16.62C89.4475 17.5933 89.7342 18.3933 90.3075 19.02C90.8808 19.6467 91.6475 19.96 92.6075 19.96Z" fill="white"/>
<path d="M105.512 11.3C105.645 11.3 105.892 11.32 106.252 11.36V13.9C105.959 13.7933 105.605 13.74 105.192 13.74C104.725 13.74 104.312 13.8733 103.952 14.14C103.605 14.3933 103.339 14.7333 103.152 15.16C102.965 15.5733 102.825 16 102.732 16.44C102.652 16.8667 102.612 17.2933 102.612 17.72V21.7H100.192V11.54H102.552V14.32C102.685 13.48 103.012 12.7667 103.532 12.18C104.052 11.5933 104.712 11.3 105.512 11.3Z" fill="white"/>
<path d="M117.312 16.18C117.312 16.58 117.292 16.8733 117.252 17.06H109.432C109.538 18.0067 109.885 18.7333 110.472 19.24C111.058 19.7333 111.832 19.98 112.792 19.98C113.912 19.98 114.805 19.76 115.472 19.32L116.412 20.86C115.332 21.58 114.058 21.94 112.592 21.94C110.965 21.94 109.632 21.46 108.592 20.5C107.565 19.54 107.052 18.2533 107.052 16.64C107.052 15.0533 107.538 13.7667 108.512 12.78C109.498 11.7933 110.778 11.3 112.352 11.3C113.845 11.3 115.045 11.7467 115.952 12.64C116.858 13.52 117.312 14.7 117.312 16.18ZM112.292 13.18C111.545 13.18 110.925 13.4 110.432 13.84C109.952 14.2667 109.645 14.8533 109.512 15.6H114.912C114.858 14.84 114.598 14.2467 114.132 13.82C113.665 13.3933 113.052 13.18 112.292 13.18Z" fill="white"/>
<path d="M122.872 11.3C124.206 11.3 125.446 11.5933 126.592 12.18L125.892 13.82C124.852 13.3533 123.892 13.12 123.012 13.12C122.559 13.12 122.159 13.2133 121.812 13.4C121.466 13.5733 121.292 13.8667 121.292 14.28C121.292 14.7867 121.712 15.16 122.552 15.4L124.012 15.86C125.839 16.4467 126.752 17.4533 126.752 18.88C126.752 19.8933 126.346 20.66 125.532 21.18C124.732 21.6867 123.792 21.94 122.712 21.94C121.006 21.94 119.566 21.58 118.392 20.86L119.212 19.18C120.266 19.78 121.392 20.08 122.592 20.08C123.032 20.08 123.446 19.9867 123.832 19.8C124.232 19.6133 124.432 19.3267 124.432 18.94C124.432 18.38 123.966 17.9733 123.032 17.72L121.572 17.26C119.839 16.6867 118.972 15.7067 118.972 14.32C118.972 13.32 119.359 12.5667 120.132 12.06C120.906 11.5533 121.819 11.3 122.872 11.3Z" fill="white"/>
<path d="M132.364 11.3C133.698 11.3 134.938 11.5933 136.084 12.18L135.384 13.82C134.344 13.3533 133.384 13.12 132.504 13.12C132.051 13.12 131.651 13.2133 131.304 13.4C130.958 13.5733 130.784 13.8667 130.784 14.28C130.784 14.7867 131.204 15.16 132.044 15.4L133.504 15.86C135.331 16.4467 136.244 17.4533 136.244 18.88C136.244 19.8933 135.838 20.66 135.024 21.18C134.224 21.6867 133.284 21.94 132.204 21.94C130.498 21.94 129.058 21.58 127.884 20.86L128.704 19.18C129.758 19.78 130.884 20.08 132.084 20.08C132.524 20.08 132.938 19.9867 133.324 19.8C133.724 19.6133 133.924 19.3267 133.924 18.94C133.924 18.38 133.458 17.9733 132.524 17.72L131.064 17.26C129.331 16.6867 128.464 15.7067 128.464 14.32C128.464 13.32 128.851 12.5667 129.624 12.06C130.398 11.5533 131.311 11.3 132.364 11.3Z" fill="white"/>
</svg>
